<svg width="24" height="24" viewBox="0 0 24 24" fill="none" xmlns="http://www.w3.org/2000/svg">
<g id="Filter">
<g id="Iconly/Light-Outline/Filter">
<g id="Filter_2">
<path id="Combined-Shape" fill-rule="evenodd" clip-rule="evenodd" d="M19.1905 14.2113C21.36 14.2113 23.125 15.9585 23.125 18.1057C23.125 20.2528 21.36 22 19.1905 22C17.0197 22 15.2535 20.2528 15.2535 18.1057C15.2535 15.9585 17.0197 14.2113 19.1905 14.2113ZM19.1905 16.0981C18.0653 16.0981 17.15 16.9987 17.15 18.1057C17.15 19.2138 18.0653 20.1132 19.1905 20.1132C20.3145 20.1132 21.2286 19.2138 21.2286 18.1057C21.2286 16.9987 20.3145 16.0981 19.1905 16.0981ZM9.95157 17.2111C10.475 17.2111 10.8998 17.6337 10.8998 18.1545C10.8998 18.6752 10.475 19.0979 9.95157 19.0979H1.98526C1.46185 19.0979 1.03704 18.6752 1.03704 18.1545C1.03704 17.6337 1.46185 17.2111 1.98526 17.2111H9.95157ZM4.93574 2C7.10653 2 8.87149 3.74843 8.87149 5.8956C8.87149 8.04277 7.10653 9.78868 4.93574 9.78868C2.76622 9.78868 1 8.04277 1 5.8956C1 3.74843 2.76622 2 4.93574 2ZM4.93574 3.88679C3.81179 3.88679 2.89644 4.78742 2.89644 5.8956C2.89644 7.00252 3.81179 7.90189 4.93574 7.90189C6.06096 7.90189 6.97505 7.00252 6.97505 5.8956C6.97505 4.78742 6.06096 3.88679 4.93574 3.88679ZM21.4703 5.01937C21.9937 5.01937 22.4185 5.44201 22.4185 5.96277C22.4185 6.48352 21.9937 6.90616 21.4703 6.90616H13.5052C12.9818 6.90616 12.557 6.48352 12.557 5.96277C12.557 5.44201 12.9818 5.01937 13.5052 5.01937H21.4703Z" fill="#0F509D"/>
</g>
</g>
</g>
</svg>
